<?xml version="1.0" encoding="UTF-8"?>
<svg id="Layer_2" data-name="Layer 2" xmlns="http://www.w3.org/2000/svg" viewBox="0 0 188.17 27.84">
  <defs>
    <style>
      .cls-1 {
        stroke-width: 0px;
        fill: #FFACAC;
      }
    </style>
  </defs>
  <g id="Layer_1-2" data-name="Layer 1">
    <g>
      <path class="cls-1" d="M88.7,16.16h10.92c.03-.09-.09.29-.25.66-.82,1.95-2.07,3.88-2.21,5.88-.05.65,3.14,2.47,4.24,2.07,2.05-.75,4.77-2.43,5.24-4.24,1.37-5.22-1.28-9.28-5.58-13.27,2,0,3.99,0,5.99,0,6.83-.02,13.66-.04,20.5-.06,4,0,7.71.8,10.46-4.15,2.45-4.41,7.85-2.53,11.61,3.45,5.02-5.82,7.53-5.75,12.2.47,2.45-2.85,4.7-4.49,7.89-.46,1.76,2.22,7.95.96,9.93-1.42.95-1.14,1.72-2.43,2.75-3.92,1.98,2.32,3.83,4.5,5.77,6.79-1.72,2.3-3.48,4.66-5.53,7.4-1.16-1.59-2.07-2.9-3.04-4.16-3.43-4.44-6.13-4.54-11.02-1.7-1.71.99-4.47.16-7.9.16-4.19,4.45-5.42,4.52-10.75-.37-1.89,1.52-3.55,3.56-5.67,4.34-1.58.58-4.7.21-5.52-.91-6.69-9.24-15.57-1.79-23.04-4.36-.17.63-.33,1.26-.5,1.89,3.11,1.04,6.22,2.07,10.34,3.44-2.51.44-4.13.57-5.65,1.03-1.14.35-2.11,1.41-3.25,1.62-2.18.39-4.44.39-6.75.56-1.12,10.93-6.14,13.72-15.56,8.17-10.09,5.32-15.15,2.64-15.81-8.37-2.09-1.67-5.36,4.03-7.33-1.38-.44-1.22-4.91-.98-8.85-1.63,4.42-1.41,7.56-2.4,10.69-3.4-.05-.67-.1-1.33-.15-2-6.3,0-12.6-.06-18.9.08-.74.02-1.56,1.1-2.17,1.84-4.46,5.4-8.07,5.31-12.23-.33-.28-.38-.72-.65-1.08-.97-5.39,5.29-7.15,5.21-12.08-.71-2.55,2.91-4.8,3.59-8.2.43-1.31-1.22-5.56-.18-7.95.94-1.86.87-2.91,3.45-4.61,5.65-1.97-2.47-3.78-4.74-5.69-7.13C1.85,5.89,3.7,3.68,5.8,1.17c2.27,4,5,7.28,10.18,6.17.94-.2,1.98-.37,2.73-.9,4.16-2.95,4.13-2.99,7.9.43,4.4-6.09,7.29-6.19,11.94-.16.83-1.28,1.48-2.57,2.4-3.63,2.86-3.29,8.22-3.12,10.12.83,1.51,3.12,3.5,3.38,6.3,3.36,9.81-.08,19.63-.03,29.45-.03.59.65,1.18,1.3,1.77,1.95-1.36.52-3.51.69-3.92,1.63-1.41,3.19-2.76,6.61-2.95,10.01-.07,1.3,2.9,3.46,4.81,3.95,1.36.35,4.43-1.21,4.65-2.34.32-1.62-1.23-3.62-2.01-5.45-.17-.4-.43-.76-.46-.83Z"/>
      <path class="cls-1" d="M125.09,3.85h-61.29c20.43-5.11,40.86-5.15,61.29,0Z"/>
    </g>
  </g>
</svg>